<?xml version="1.0" standalone="no"?>
<!DOCTYPE svg PUBLIC "-//W3C//DTD SVG 20010904//EN"
 "http://www.w3.org/TR/2001/REC-SVG-20010904/DTD/svg10.dtd">
<svg version="1.0" xmlns="http://www.w3.org/2000/svg"
 width="260.000000pt" height="260.000000pt" viewBox="0 0 260.000000 260.000000"
 preserveAspectRatio="xMidYMid meet">
<metadata>
Created by potrace 1.11, written by Peter Selinger 2001-2013
</metadata>
<g transform="translate(0.000000,260.000000) scale(0.100000,-0.100000)"
fill="#000000" stroke="none">
<path d="M1120 2445 c-116 -18 -218 -48 -303 -91 -16 -8 -35 -14 -43 -14 -8 0
-14 -3 -14 -8 0 -4 -17 -15 -37 -25 -21 -10 -54 -29 -73 -43 -19 -14 -46 -33
-60 -42 -38 -25 -200 -193 -243 -252 -21 -29 -50 -74 -63 -101 -14 -26 -29
-51 -34 -54 -6 -3 -10 -14 -10 -24 0 -9 -9 -37 -21 -60 -11 -24 -22 -52 -24
-62 -2 -10 -9 -27 -15 -39 -6 -12 -9 -28 -6 -35 2 -7 2 -16 -2 -19 -7 -8 -13
-32 -16 -66 -1 -14 -5 -30 -9 -36 -3 -6 -4 -22 -2 -34 3 -13 0 -29 -6 -36 -11
-14 -7 -172 6 -234 4 -19 8 -49 9 -67 0 -17 4 -34 8 -38 4 -4 4 -13 2 -20 -3
-7 0 -16 5 -20 6 -3 9 -11 5 -16 -3 -5 0 -17 7 -25 6 -8 12 -22 13 -32 2 -22
36 -111 53 -138 8 -12 16 -31 18 -43 2 -12 11 -28 20 -37 8 -9 23 -30 32 -47
9 -18 25 -44 37 -59 12 -14 28 -36 37 -47 26 -34 150 -161 158 -161 4 0 16 -8
27 -17 39 -36 141 -100 216 -137 87 -43 132 -44 140 -1 5 25 6 25 -127 87 -27
13 -52 25 -55 28 -3 3 -30 23 -60 43 -83 57 -130 93 -157 124 -13 15 -37 43
-54 60 -16 18 -30 36 -30 40 -1 5 -10 14 -20 21 -11 7 -19 17 -19 22 0 5 -13
29 -29 52 -16 24 -31 50 -33 58 -2 8 -9 21 -16 28 -7 8 -10 18 -7 23 4 5 2 9
-3 9 -11 0 -21 22 -28 59 -3 13 -11 36 -20 52 -8 16 -14 32 -13 36 1 4 0 10
-1 13 -1 3 -3 12 -5 20 -2 8 -7 26 -10 40 -16 61 -28 333 -16 355 5 9 11 49
13 85 0 8 5 20 10 27 5 7 7 16 4 22 -3 5 -1 22 6 38 6 15 12 35 13 44 2 13 58
129 106 219 17 31 67 98 94 126 11 11 31 34 45 50 32 36 77 74 89 74 5 0 11 6
14 14 7 17 142 106 161 106 8 0 16 3 18 8 7 16 128 66 218 90 82 22 117 25
255 26 155 1 283 -16 337 -45 10 -5 24 -9 31 -9 7 0 41 -13 75 -30 34 -16 65
-30 68 -30 3 0 44 -25 90 -55 97 -63 259 -220 289 -280 11 -22 22 -42 26 -45
20 -18 101 -174 97 -187 -1 -5 3 -17 9 -29 7 -11 14 -34 17 -50 2 -16 5 -29 6
-29 2 0 4 -9 6 -20 1 -11 6 -31 9 -45 4 -14 8 -41 9 -61 2 -19 5 -40 8 -45 9
-15 -2 -269 -12 -269 -1 0 -4 -13 -6 -30 -4 -37 -6 -46 -27 -117 -10 -32 -17
-60 -17 -63 1 -13 -86 -174 -123 -229 -42 -61 -212 -236 -230 -236 -5 0 -17
-8 -26 -17 -49 -53 -331 -183 -367 -169 -6 2 -16 0 -21 -5 -12 -12 -171 -32
-200 -24 -13 3 -23 11 -23 19 0 7 -7 19 -15 26 -9 7 -14 19 -11 26 3 7 -1 17
-8 23 -16 14 -49 127 -41 140 3 5 1 12 -3 15 -13 8 -15 143 -3 151 6 3 8 12 5
19 -4 11 14 14 93 14 54 -1 123 3 153 8 30 5 60 9 65 9 6 0 13 4 16 8 3 5 12
9 20 10 28 4 119 67 166 114 69 69 84 90 122 166 19 37 40 67 47 67 8 0 11 6
7 16 -5 13 4 40 40 124 6 14 12 32 12 40 1 9 7 25 13 35 15 29 76 330 70 347
-4 10 -24 13 -74 11 -38 -1 -80 -4 -94 -7 -38 -8 -147 -26 -185 -30 -11 -2
-33 -8 -49 -15 -16 -6 -31 -10 -33 -7 -3 2 -25 -4 -50 -15 -24 -10 -55 -19
-67 -19 -12 0 -32 -7 -44 -16 -12 -8 -22 -13 -22 -10 0 7 -104 -48 -141 -75
-16 -11 -29 -18 -29 -14 0 3 -16 -11 -35 -31 -19 -19 -35 -32 -35 -28 0 10
-73 -95 -87 -126 -37 -78 -43 -106 -43 -202 0 -101 24 -201 67 -284 13 -25 14
-42 6 -105 -18 -134 11 -269 90 -423 l41 -78 75 6 c134 10 312 46 336 67 5 5
16 9 25 9 26 0 234 112 260 140 3 3 21 17 40 30 54 38 148 130 188 185 20 28
39 52 42 55 20 16 114 196 150 285 11 26 49 185 49 205 0 8 3 44 7 80 10 104
3 267 -13 293 -4 6 -8 20 -9 31 -6 46 -13 83 -25 126 -17 60 -107 236 -153
298 -20 27 -36 52 -36 55 0 14 -173 179 -235 225 -66 49 -201 122 -224 122 -6
0 -11 4 -11 9 0 5 -29 17 -65 26 -36 10 -68 22 -71 27 -3 4 -23 8 -44 8 -21 0
-51 5 -65 10 -46 18 -262 20 -365 5z m666 -944 c-3 -4 -24 -21 -48 -37 -24
-16 -45 -31 -48 -34 -3 -3 -18 -14 -34 -24 -100 -64 -305 -274 -384 -396 -38
-58 -72 -113 -75 -122 -19 -55 -47 31 -47 144 0 73 15 140 43 194 35 68 144
153 249 195 76 30 103 40 105 40 2 0 17 5 35 10 18 6 44 12 57 15 13 3 32 9
43 15 10 5 22 8 27 5 4 -3 21 -1 37 3 30 9 48 5 40 -8z m139 -82 c-5 -13 -8
-25 -7 -26 2 -7 -41 -141 -71 -218 -107 -276 -259 -407 -476 -408 -43 0 -83 3
-90 7 -48 30 71 221 243 391 153 151 375 310 399 286 5 -5 6 -20 2 -32z"/>
<path d="M514 1358 c-3 -4 -2 -13 2 -20 4 -6 9 -36 10 -67 2 -31 5 -67 8 -81
3 -14 7 -42 11 -64 3 -21 10 -47 16 -57 5 -10 8 -19 5 -19 -9 0 43 -140 69
-189 38 -70 138 -171 168 -171 7 0 23 -7 35 -16 12 -8 22 -12 22 -8 0 3 6 3
13 -2 6 -5 32 -8 57 -8 117 3 126 7 107 48 -11 25 -15 27 -55 21 -86 -13 -228
40 -250 93 -4 10 -19 35 -32 57 -22 36 -56 115 -65 155 -2 8 -4 17 -6 20 -1 3
-3 10 -4 15 -2 6 -4 12 -5 15 -13 35 -18 120 -8 126 5 4 88 -72 183 -168 151
-151 174 -170 178 -150 2 12 0 25 -5 28 -5 3 -7 12 -4 19 3 8 -62 80 -161 179
-153 152 -181 190 -135 181 9 -2 17 -4 17 -6 0 -1 11 -3 25 -4 14 -2 36 -6 50
-9 14 -3 35 -8 48 -11 45 -10 58 -14 112 -35 51 -19 56 -19 67 -4 23 31 -11
61 -94 81 -7 2 -21 5 -30 7 -10 3 -18 5 -18 6 0 1 -7 3 -15 5 -8 2 -26 7 -40
10 -30 8 -83 16 -130 20 -19 1 -35 4 -35 5 0 7 -107 5 -111 -2z"/>
</g>
</svg>
