<?xml version="1.0" encoding="UTF-8"?><svg xmlns="http://www.w3.org/2000/svg" viewBox="0 0 17.81 2.36"><defs><style>.d{fill:#ccc;}</style></defs><g id="a"/><g id="b"><g id="c"><path class="d" d="M1.77,.86H.51V.07H0V1.35H1.77v.93h.51V.07h-.51V.86ZM0,2.28H.51v-.62H0v.62ZM14.64,1.18h0c0,.2-.06,.37-.19,.5-.13,.13-.29,.2-.48,.2s-.36-.07-.49-.2c-.13-.13-.19-.3-.19-.51s.06-.37,.19-.51c.13-.14,.29-.2,.48-.2s.35,.07,.48,.2c.13,.14,.19,.31,.19,.51Zm.19-.84c-.11-.11-.25-.19-.4-.25-.3-.12-.63-.12-.93,0-.15,.06-.28,.15-.4,.25-.12,.11-.2,.24-.26,.38-.06,.14-.09,.29-.09,.46,0,.18,.04,.35,.11,.51,.08,.16,.19,.29,.33,.4,.11,.09,.23,.15,.37,.2,.13,.05,.27,.07,.41,.07,.16,0,.31-.03,.46-.09,.15-.06,.28-.15,.4-.26,.11-.11,.2-.24,.26-.38,.06-.14,.09-.3,.09-.46s-.03-.31-.09-.45c-.06-.14-.15-.27-.26-.38ZM4.58,1.18h0c0,.2-.06,.37-.19,.5-.13,.13-.29,.2-.48,.2s-.36-.07-.49-.2c-.13-.13-.19-.3-.19-.51s.06-.37,.19-.51c.13-.14,.29-.2,.48-.2s.35,.07,.48,.2c.13,.14,.19,.31,.19,.51Zm.19-.84c-.11-.11-.25-.19-.4-.25-.3-.12-.63-.12-.93,0-.15,.06-.28,.15-.4,.25-.12,.11-.2,.24-.26,.38-.06,.14-.09,.29-.09,.46,0,.18,.04,.35,.11,.51,.08,.16,.19,.29,.33,.4,.11,.09,.23,.15,.37,.2,.13,.05,.27,.07,.41,.07,.16,0,.31-.03,.46-.09,.15-.06,.28-.15,.4-.26,.11-.11,.2-.24,.26-.38,.06-.14,.09-.3,.09-.46s-.03-.31-.09-.45c-.06-.14-.15-.27-.26-.38ZM17.32,.07V1.49L16.05,.07h-.52V2.28h.49V.78l1.35,1.5h.43V.07h-.49Zm-6.88,.48h.85v1.72h.51V.55h.85V.07h-2.2v.48Zm-1.18,.34h-.03c-.35-.03-.6-.06-.6-.21,0-.04,.01-.07,.04-.1,.08-.08,.27-.12,.51-.12,.33,0,.58,.08,.78,.25l.03,.02,.28-.39-.02-.02C9.98,.12,9.6,0,9.17,0c-.66,0-1.07,.28-1.07,.72,0,.51,.59,.63,1.1,.68,.48,.05,.62,.1,.62,.24,0,.15-.18,.23-.56,.23s-.69-.11-.92-.35l-.03-.03-.29,.38,.02,.02c.31,.29,.72,.44,1.21,.44,.67,0,1.08-.29,1.08-.75,0-.53-.55-.65-1.08-.7Zm-2.04,.32c0,.42-.22,.66-.62,.66s-.62-.23-.62-.66V.07h-.51V1.25c0,.68,.43,1.11,1.12,1.11s1.12-.43,1.12-1.11V.07h-.51V1.21Z"/></g></g></svg>