<?xml version="1.0" encoding="UTF-8"?><svg xmlns="http://www.w3.org/2000/svg" viewBox="0 0 86.53 18.08"><defs><style>.d{fill:#fff;}.e{fill:#0ceda5;}.f{fill:#0beda5;}</style></defs><g id="a"/><g id="b"><g id="c"><g><path class="f" d="M42.54,18.08c-.08,0-.17,0-.25,0-1.95,0-3.9,0-5.84,0-.06,0-.11,0-.17,0,0-.42,0-.84,0-1.25,0-.1,0-.1,.1-.1,.03,0,.07,0,.1,0,1.75,0,3.5,0,5.25,0,.08,0,.16,0,.24-.01,.24-.04,.39-.22,.38-.47,0-.21-.19-.39-.41-.41-.06,0-.12,0-.18,0-1.21,0-2.42,0-3.63,0-.59,0-1.08-.21-1.48-.64-.24-.25-.37-.55-.37-.9,0-.19-.02-.39,0-.58,.05-.37,.24-.67,.53-.9,.39-.33,.86-.49,1.36-.49,1.95,0,3.91,0,5.86,0,.18,0,.17-.01,.17,.16,0,.35,0,.7,0,1.06,0,.15,0,.16-.15,.16h-3.16c-.74,0-1.48,0-2.22,0-.12,0-.23,.02-.33,.07-.25,.12-.31,.47-.11,.67,.09,.09,.21,.15,.34,.15,.06,0,.12,0,.18,0,1.2,0,2.39,0,3.59,0,.57,0,1.05,.2,1.44,.6,.27,.28,.42,.61,.42,1,0,.17,0,.34,0,.51-.04,.37-.22,.66-.5,.9-.33,.29-.72,.46-1.16,.5"/><path class="f" d="M61.12,18.07c-2.58,0-5.17,0-7.75,0-.05,0-.1,0-.16,0-.11-.04-.11-.04-.11-.15v-5.5s0-.05,0-.07c0-.05,.02-.07,.07-.06,.02,0,.05,0,.07,0,2.56,0,5.12,0,7.68,0,.23,0,.2-.03,.21,.2,0,.35,0,.7,0,1.06,0,.12,0,.12-.12,.12-.04,0-.08,0-.13,0-2.46,0-4.91,0-7.37,0-.2,0-.18-.03-.18,.18,0,.2,0,.4,0,.61,0,.07,.02,.11,.1,.1,.03,0,.07,0,.1,0,2.47,0,4.93,0,7.4,0,.23,0,.2-.02,.2,.21,0,.31,0,.61,0,.92,0,.14,0,.14-.14,.14-1.17,0-2.34,0-3.52,0-1.32,0-2.65,0-3.97,0-.18,0-.17-.02-.17,.16,0,.21,0,.42,0,.63,0,.07,.03,.1,.1,.1,.04,0,.08,0,.11,0,2.47,0,4.93,0,7.4,0,.2,0,.18-.02,.18,.18,0,.37,0,.74,0,1.11,0,.02,0,.05,0,.07"/><path class="f" d="M52.65,18.08c-.54,0-1.08,0-1.62,0-2.09,0-4.19,0-6.28,0-.03-.05-.02-.1-.02-.15,0-1.83,0-3.66,0-5.48,0-.01,0-.03,0-.04,0-.1,0-.11,.11-.11,.1,0,.21,0,.31,0,2.45,0,4.89,0,7.34,0,.19,0,.18-.03,.18,.18,0,.34,0,.68,0,1.01,0,.2,0,.18-.17,.18-1.35,0-2.7,0-4.05,0h-3.29s-.07,0-.1,0c-.08,0-.1,.03-.09,.1,0,.23,0,.46,0,.69,0,.07,.02,.11,.1,.1,.04,0,.08,0,.11,0h7.31c.2,0,.19-.02,.19,.18,0,.3,0,.6,0,.9,0,.21,0,.18-.17,.18-1.55,0-3.11,0-4.66,0h-2.68s-.07,0-.1,0c-.08,0-.1,.03-.09,.1,0,.23,0,.47,0,.7,0,.08,.03,.1,.1,.09,.04,0,.08,0,.11,0h7.29s.08,0,.11,0c.08,0,.1,.03,.1,.1,0,.39,0,.79,0,1.18,0,.03,0,.06-.02,.08"/><path class="d" d="M13.2,18.08c-1,0-2,0-2.99,0-.44,0-.83-.17-1.17-.46-.13-.11-.24-.23-.33-.36-.16-.24-.23-.5-.23-.78,0-1.33,0-2.66,0-3.99v-.04c0-.14,0-.14,.14-.14,.53,0,1.05,0,1.58,0,.14,0,.14,0,.14,.14,0,1.11,0,2.22,0,3.33,0,.51,.29,.8,.72,.92,.05,.01,.11,.01,.17,.01,1.06,0,2.13,0,3.19,0,.15,0,.15,0,.15-.16,0-1.35,0-2.7,0-4.05,0-.22-.02-.2,.2-.2,.49,0,.98,0,1.47,0,.03,0,.07,0,.1,0,.04,0,.07,.02,.07,.07,0,.03,0,.06,0,.08,0,1.82,0,3.65,0,5.47,0,.03,0,.06,0,.08,0,.05-.03,.08-.08,.07-.04,0-.08,0-.11,0h-3.02"/><path class="d" d="M74.1,12.29h3.8c.18,0,.17-.01,.17,.17v1.06s0,.05,0,.07c0,.07-.03,.09-.1,.09-.03,0-.07,0-.1,0h-2.64s-.08,0-.11,0c-.05,0-.08,.03-.08,.08,0,.04,0,.08,0,.11v3.97s0,.08,0,.11c0,.11-.02,.12-.14,.12-.36,0-.72,0-1.09,0-.18,0-.36,0-.54,0-.07,0-.11-.02-.1-.1,0-.04,0-.08,0-.11v-4.02c0-.19,.01-.17-.18-.17h-2.68q-.19,0-.19-.19c0-.35,0-.7,0-1.06,0-.14,0-.14,.14-.14,1.28,0,2.55,0,3.83,0"/><path class="d" d="M29.38,18.08h-3.78c-.19,0-.18,0-.18-.18,0-1.81,0-3.62,0-5.43,0-.19-.01-.18,.17-.18h1.5s.05,0,.07,0c.08,0,.1,.03,.1,.1,0,.04,0,.08,0,.11v3.96s0,.05,0,.07c0,.15,0,.15,.15,.15,1.91,0,3.81,0,5.72,0,.23,0,.23-.01,.23,.22,0,.34,0,.68,0,1.01,0,.14,0,.15-.15,.15h-3.83"/><path class="d" d="M78.62,12.32s.09-.02,.12-.02c.53,0,1.06,0,1.6,0,.09,0,.15,.02,.21,.09,.23,.26,.47,.51,.71,.77,.22,.24,.44,.48,.67,.72,.19,.2,.37,.4,.55,.6,.02,.02,.04,.04,.06,.06,.05,.05,.08,.04,.13,0,.22-.25,.44-.5,.67-.74,.11-.12,.23-.24,.33-.36,.16-.18,.34-.34,.49-.53,.14-.17,.32-.32,.45-.5,.04-.06,.1-.1,.19-.1,.56,0,1.11,0,1.67,0,.03,0,.06,0,.08,.01,0,.06-.04,.08-.07,.11-.3,.33-.61,.65-.91,.98-.2,.21-.39,.43-.59,.64-.21,.23-.42,.46-.63,.68-.27,.28-.52,.58-.79,.86-.05,.06-.05,.12-.05,.18,0,.7,0,1.41,0,2.11,0,.22,.02,.2-.2,.2-.48,0-.96,0-1.44,0-.02,0-.05,0-.07,0q-.13,0-.13-.12s0-.06,0-.08c0-.7,0-1.39,0-2.09,0-.09-.02-.17-.09-.24-.2-.21-.39-.43-.59-.64-.21-.23-.42-.46-.63-.68-.21-.22-.41-.45-.62-.67-.31-.34-.61-.68-.93-1.01-.06-.07-.11-.15-.18-.21"/><path class="d" d="M35.73,15.18v2.68s0,.07,0,.1c0,.11,0,.11-.12,.12-.02,0-.04,0-.06,0h-1.48s-.08,0-.11,0c-.04,0-.06-.02-.06-.06,0-.03,0-.07,0-.1,0-1.82,0-3.64,0-5.45h0c0-.16,0-.16,.14-.16,.52,0,1.04,0,1.55,0,.14,0,.14,0,.14,.14,0,.78,0,1.57,0,2.35v.39Z"/><path class="e" d="M43.12,8.33c-.25,.09-.5,.06-.75,.06-.07,0-.13-.03-.19-.05-.17-.07-.34-.15-.48-.27-.32-.27-.52-.6-.66-.98-.06-.16-.1-.34-.17-.5-.03-.05-.03-.12-.04-.17,0-.11-.05-.21-.07-.31-.04-.15-.02-.29-.07-.44-.03-.1-.01-.22-.02-.34,0-.05,0-.1-.03-.15-.04-.05,0-.09,.05-.08,.16,.02,.33-.03,.49,.04,.02,0,.04,0,.06,0,.17-.03,.33,.03,.5,.06,.2,.04,.4,.07,.58,.16,.07,.03,.14,.03,.22,.05,.09,.03,.16,.07,.24,.11,.09,.04,.1,.08,.08,.17,0,.03-.02,.06-.03,.09-.01,.05-.04,.05-.08,.03-.17-.09-.36-.13-.53-.2-.18-.07-.38-.09-.57-.13-.1-.02-.21-.04-.32-.05-.07,0-.11,.03-.08,.1,.01,.02,.03,.05,.05,.07,.19,.17,.36,.38,.56,.54,.04,.03,.07,.09,.11,.13,.11,.11,.23,.2,.33,.32,.12,.14,.27,.26,.39,.4,.01,.01,.03,.03,.03,.05,0,.13,.09,.25,.05,.38-.03,.02-.05,0-.07-.03-.48-.48-.96-.97-1.44-1.45-.02-.02-.04-.05-.07-.07-.07-.04-.13-.01-.13,.06,0,.11,0,.22,.04,.33,.06,.22,.12,.44,.19,.66,.08,.23,.2,.44,.32,.66,.11,.2,.3,.3,.47,.42,.06,.05,.15,.05,.22,.06,.18,.02,.36,.1,.55,.02,.04-.02,.08,0,.13,0,.03,0,.06,.01,.07,.04,.01,.08,.07,.14,.08,.22"/><path class="d" d="M7.96,13.85c0-.24-.07-.48-.21-.69-.12-.19-.28-.35-.46-.49-.33-.25-.7-.38-1.11-.38-2.06,0-4.12,0-6.18,0v5.78c2.07,0,4.15,0,6.22,0,.04,0,.08,0,.11,0,.51-.08,.96-.29,1.3-.7,.21-.24,.33-.52,.33-.83,0-.9,0-1.79,0-2.69Zm-2.56,2.83s-.09,0-.14,0c-.54,0-1.07,0-1.61,0h-1.6s-.07,0-.1,0c-.08,0-.1-.03-.1-.1,0-.02,0-.05,0-.07v-2.68c0-.18-.01-.17,.17-.17,1.06,0,2.13,0,3.19,0,.4,0,.88,.35,.88,.87,0,.42,0,.85,0,1.27,0,.34-.27,.77-.7,.87Z"/><path class="f" d="M49.57,4.74s0-.04-.01-.05c-.05-.09-.06-.19-.07-.28-.03-.23-.07-.46-.15-.67-.03-.08-.02-.17-.06-.24-.08-.17-.17-.34-.27-.5-.04-.06-.01-.13-.07-.18-.06-.05-.08-.13-.1-.19-.01-.03-.02-.06-.05-.08-.09-.08-.14-.2-.22-.29-.05-.06-.13-.12-.11-.22,0,0-.02-.02-.03-.03-.17-.09-.26-.26-.4-.39-.14-.13-.26-.28-.41-.39-.08-.05-.16-.1-.22-.17-.11-.11-.25-.17-.37-.27-.09-.07-.21-.08-.3-.15-.09-.06-.2-.11-.3-.15-.08-.03-.14-.1-.21-.11-.12-.02-.24-.08-.36-.11-.06-.01-.14-.02-.19-.08-.04-.05-.1-.05-.15-.05-.08,0-.17,.02-.25-.01-.15-.05-.3-.09-.46-.08-.05,0-.09,0-.14,0-.04,0-.06-.02-.08-.05h-.68c-.04,.06-.09,.05-.15,.05-.07,0-.16-.02-.22,.01-.06,.04-.12,.03-.19,.03-.04,0-.09,0-.12,.02-.05,.03-.1,.03-.15,.03-.03,0-.06,0-.1,.01-.15,.07-.33,.07-.48,.17,0,0,0,0-.01,0-.13,0-.23,.09-.35,.12-.1,.03-.19,.09-.28,.14-.18,.09-.38,.16-.52,.32,0,.01-.02,.02-.03,.02-.21,.08-.34,.26-.53,.36-.02,.01-.04,.04-.06,.06-.18,.2-.38,.37-.55,.58-.17,.21-.32,.43-.48,.65-.08,.11-.12,.23-.19,.34-.04,.08-.08,.15-.11,.23-.08,.23-.19,.44-.26,.67-.02,.07-.06,.13-.05,.2,0,.03,0,.05-.02,.08-.08,.19-.08,.4-.12,.6-.01,.09,.01,.18-.06,.25-.02,.02-.01,.07-.01,.11,0,.18,0,.36,0,.54,0,.1-.03,.21,.06,.29,.01,.01,0,.04,0,.05,0,.15,.07,.3,.04,.46,0,.02,0,.04,.01,.05,.06,.07,.06,.17,.07,.25,.03,.16,.11,.3,.14,.46,0,.03,0,.07,.03,.09,.1,.15,.12,.34,.24,.49,.01,.02,.02,.04,.02,.07,0,.09,.05,.14,.1,.2,.08,.09,.16,.18,.18,.31,0,.03,.01,.05,.03,.06,.09,.07,.14,.17,.21,.26,.03,.04,.05,.08,.08,.11,.2,.25,.48,.44,.66,.71,0,.01,.02,.02,.03,.02,.17,.06,.29,.19,.44,.29,.15,.1,.3,.22,.46,.29,.13,.06,.25,.12,.38,.19,.05,.02,.09,.05,.14,.07,.11,.05,.21,.04,.31-.01,.1-.06,.12-.18,.03-.26-.05-.04-.11-.09-.16-.1-.16-.03-.28-.12-.42-.19-.11-.05-.22-.11-.32-.19-.12-.09-.26-.17-.38-.26-.11-.08-.21-.17-.32-.25-.11-.08-.21-.17-.29-.28-.06-.08-.11-.17-.18-.23-.13-.1-.23-.23-.3-.36-.07-.11-.15-.22-.21-.34-.1-.25-.3-.46-.35-.74-.03-.14-.11-.26-.13-.41,0-.07-.03-.14-.05-.21-.04-.13-.1-.25-.08-.39,0-.02,0-.05,0-.07-.05-.09-.04-.19-.04-.29,0-.27,0-.55,0-.82,0-.14,.06-.26,.05-.4,0-.01,.01-.02,.02-.04,.04-.1,.06-.21,.07-.32,.02-.17,.09-.32,.13-.48,.03-.13,.1-.25,.16-.37,.05-.09,.07-.19,.12-.26,.14-.21,.21-.46,.42-.63,.07-.17,.21-.28,.33-.41,.05-.06,.08-.13,.15-.18,.28-.22,.54-.46,.84-.66,.15-.09,.3-.19,.46-.25,.14-.06,.28-.12,.42-.2,.07-.04,.14-.08,.22-.08,.17,0,.32-.09,.49-.12,.14-.02,.27-.08,.42-.07,.04,0,.08,0,.11-.01,.08-.04,.16-.04,.25-.04,.24,0,.48,0,.72,0,.04,0,.08,0,.11,0,.12,.07,.27,0,.39,.08,.18-.02,.33,.09,.5,.11,.18,.02,.36,.1,.53,.19,.25,.12,.49,.24,.73,.38,.29,.18,.54,.41,.8,.63,.19,.15,.32,.36,.48,.54,.06,.07,.12,.13,.15,.22,.03,.09,.07,.16,.14,.23,.08,.08,.12,.19,.17,.29,.03,.06,.1,.09,.1,.16,0,.07,.04,.13,.08,.19,.03,.05,.06,.1,.05,.16,0,.05,.02,.08,.04,.12,.02,.06,.05,.11,.06,.17,.03,.14,.07,.29,.1,.43,.04,.15,.08,.29,.07,.45,0,.04-.01,.09,.02,.12,.04,.05,.03,.12,.03,.18,0,.39,0,.77-.09,1.15-.03,.16-.06,.32-.1,.48-.01,.04-.04,.07-.04,.12,0,.15-.08,.27-.13,.4-.08,.24-.21,.46-.33,.68-.09,.18-.22,.33-.33,.5-.09,.13-.21,.23-.31,.36-.11,.14-.27,.24-.4,.37-.25,.23-.53,.42-.83,.59-.3,.17-.61,.3-.94,.4-.12,.03-.24,.07-.36,.09-.16,.03-.32,.1-.49,.08-.03,0-.06,0-.08,0-.11,.05-.23,.03-.35,.03-.06,0-.11-.02-.12-.08-.01-.14-.19-.2-.16-.36-.1-.07-.08-.2-.14-.3-.03-.04-.03-.1-.04-.15-.02-.1-.02-.21-.05-.3-.02-.07-.04-.13-.03-.2,0-.18-.02-.36,.04-.54,.04-.11,.02-.11,.14-.11,.28,0,.56,0,.83,0,.12,0,.23-.04,.34-.06,.07-.02,.15-.01,.23-.05,.14-.07,.27-.14,.41-.21,.11-.05,.2-.12,.28-.21,.05-.05,.12-.06,.16-.11,.09-.14,.24-.23,.32-.37,.04-.08,.1-.14,.14-.22,.07-.15,.14-.29,.24-.43,.06-.08,.15-.16,.12-.28,0,0,0-.02,0-.03,.06-.12,.1-.24,.14-.36,.05-.13,.12-.25,.14-.4,.03-.15,.08-.31,.13-.46,.06-.19,.07-.39,.12-.58,.03-.09,.08-.19,.05-.3,0,0,0-.02,0-.03,.06-.08,.03-.17,.04-.26,0-.07-.03-.09-.09-.09-.11,0-.23,0-.34,0-.17-.02-.32,.05-.48,.07-.16,.02-.31,.06-.47,.08-.12,.02-.25,.05-.37,.04-.02,0-.04,.02-.06,.03-.06,.05-.12,.06-.2,.06-.03,0-.06,0-.08,0-.14,.04-.27,.11-.42,.15-.06,.02-.14,0-.19,.04-.1,.08-.24,.07-.34,.16-.03,.03-.08,.05-.12,.06-.2,.05-.32,.23-.52,.29-.07,.09-.17,.15-.25,.23-.17,.16-.32,.35-.43,.56-.07,.14-.11,.29-.19,.42-.03,.05-.04,.1-.04,.16,0,.22,0,.44,0,.66,0,.22,.05,.42,.12,.62,.03,.09,.09,.18,.1,.27,.01,.06,.03,.11,.07,.16,.07,.1,.11,.21,.07,.33-.03,.1-.02,.2-.04,.29-.04,.15-.01,.29,0,.44,.01,.19,.04,.38,.09,.56,.02,.06,.05,.12,.06,.18,.02,.12,.06,.23,.11,.34,.08,.17,.16,.35,.26,.51,.04,.06,.07,.15,.16,.16,.12,.01,.25,.02,.37,0,.21-.03,.41-.07,.62-.08,.03,0,.06,0,.08-.02,.04-.02,.08-.02,.12-.03,.11,0,.22-.04,.32-.07,.14-.04,.28-.07,.4-.15,.12,.03,.22-.05,.31-.11,.14-.09,.3-.12,.44-.21,.16-.11,.34-.18,.48-.3,.16-.14,.37-.23,.5-.4,.06-.07,.13-.11,.2-.18,.14-.15,.29-.29,.41-.46,.08-.11,.17-.22,.25-.34,.14-.22,.26-.45,.39-.67,.11-.2,.17-.42,.28-.62,0,0,0-.02,0-.03,0-.16,.11-.3,.1-.46,.11-.22,.07-.47,.12-.71,.03-.12,.01-.25,.02-.38,.02-.25-.03-.51-.02-.76Zm-2.54-.04s.07-.02,.11-.02c.05,0,.07,.03,.06,.07,0,.03,0,.06-.01,.08-.06,.16-.09,.33-.13,.49-.09,.32-.22,.63-.34,.94-.06,.18-.18,.34-.27,.51-.12,.21-.26,.41-.44,.57-.15,.14-.31,.26-.49,.34-.28,.12-.57,.23-.92,.18-.08,0-.2,0-.31,0-.12,0-.18-.1-.15-.21,.02-.05,.04-.1,.06-.14,.13-.27,.29-.51,.46-.75,.23-.31,.49-.6,.77-.86,.19-.17,.36-.35,.57-.5,.25-.18,.49-.38,.75-.55,.09-.06,.19-.1,.28-.16Zm-3.29,2.71s-.05-.04-.06-.07c-.08-.23-.11-.46-.09-.71,0-.09,0-.18,0-.27,0-.18,.08-.34,.14-.5,.03-.09,.08-.18,.14-.27,.19-.25,.44-.42,.69-.59,.15-.1,.31-.16,.48-.21,.08-.02,.16-.06,.23-.1,.15-.07,.3-.11,.45-.14,.16-.04,.31-.13,.49-.11,.08,0,.16-.06,.25-.05,.03,0,.07-.01,.09,.03,.02,.04-.01,.07-.05,.09-.21,.14-.42,.28-.62,.42-.07,.05-.12,.11-.19,.17-.42,.32-.79,.7-1.14,1.1-.19,.21-.34,.45-.49,.68-.1,.15-.18,.3-.26,.46-.01,.03-.02,.06-.06,.05Z"/><path class="f" d="M69.6,13.91c0-.45-.18-.81-.51-1.1-.39-.35-.84-.52-1.36-.52-1.97,0-3.93,0-5.9,0-.02,0-.05,0-.07,0-.07,0-.1,.03-.09,.09,0,.02,0,.05,0,.07,0,1.82,0,3.65,0,5.47,0,.05-.01,.1,.02,.15,.06,0,.11,0,.17,0,1.94,0,3.87,0,5.81,0,.1,0,.2,0,.3,0,.4-.06,.77-.2,1.09-.46,.36-.31,.57-.69,.56-1.18-.01-.84,0-1.68,0-2.52Zm-2.76,2.8c-1.07,0-2.14,0-3.22,0-.1,0-.1,0-.1-.13,0-.7,0-1.41,0-2.11,0-.21,0-.42,0-.63,0-.19-.02-.16,.17-.16,.53,0,1.05,0,1.58,0s1.03,0,1.54,0c.17,0,.33,.04,.48,.13,.3,.18,.46,.44,.46,.79,0,.4,0,.8,0,1.2,0,.51-.4,.92-.91,.92Z"/><path class="d" d="M24.76,13.31c-.09-.21-.24-.37-.41-.53-.34-.32-.75-.48-1.21-.48-1-.01-1.99,0-2.99,0h-.71c-.78,0-1.56,0-2.34,0-.14,0-.14,0-.14,.14v5.48s0,.07,0,.1c0,.04,.02,.06,.06,.06,.03,0,.06,0,.08,0h1.54s.04,0,.06,0c.08,0,.1-.03,.1-.1,0-.03,0-.07,0-.1,0-.39,0-.79,0-1.18,0-.19,0-.2,.2-.2,1.35,0,2.69,0,4.04,0,.17,0,.34-.03,.5-.06,.46-.09,.81-.35,1.09-.71,.19-.23,.27-.51,.27-.81,0-.35,0-.7,0-1.06,0-.2-.05-.38-.13-.56Zm-1.74,1.17c0,.31-.21,.55-.51,.61-.09,.02-.18,.02-.27,.02h-3.26c-.17,0-.19,0-.19-.18,0-.36,0-.72,0-1.09,0-.01,0-.03,0-.04,.03-.13,.03-.13,.16-.13,.58,0,1.16,0,1.74,0h0c.56,0,1.13,0,1.69,0,.3,0,.65,.28,.64,.64,0,.06,0,.11,0,.17Z"/></g></g></g></svg>